<svg xmlns="http://www.w3.org/2000/svg" viewBox="0 0 1238.81 26.08"><defs><style>.cls-1{fill:#fbc379;}</style></defs><g id="Layer_2" data-name="Layer 2"><g id="graphics"><rect class="cls-1" x="29.84" y="13.48" width="533.87" height="1.05" rx="0.52"/><rect class="cls-1" x="677.99" y="13.47" width="532.95" height="1.05" rx="0.21" transform="translate(1888.93 28) rotate(-180)"/><path class="cls-1" d="M1206.89,14.36a8.41,8.41,0,0,1,3,.36,11.86,11.86,0,0,1,2.74,1.22,15.67,15.67,0,0,1,4.27,3.9c.57.75,1.11,1.57,1.59,2.26a7.8,7.8,0,0,0,1.78,1.8c.17.12.35.21.52.31a4.28,4.28,0,0,0,.55.23,2.64,2.64,0,0,0,1.11.14,2.71,2.71,0,0,0,1.07-.29A3,3,0,0,0,1224,24c.06-.06.13-.1.18-.16l.15-.17a1.84,1.84,0,0,0,0-1.85,6.94,6.94,0,0,0-1.49-2,16.23,16.23,0,0,0-4.59-2.93A33.78,33.78,0,0,0,1206.89,14.36Zm0,0a27,27,0,0,1,11.91,1.48,16.83,16.83,0,0,1,5.2,3,8,8,0,0,1,1.86,2.4,3.66,3.66,0,0,1,.39,1.55,2.74,2.74,0,0,1-.5,1.69l-.31.35c-.11.11-.23.2-.35.3a4.28,4.28,0,0,1-.76.46,4.83,4.83,0,0,1-1.77.46,4.55,4.55,0,0,1-1.81-.25,6.59,6.59,0,0,1-.81-.35,6.28,6.28,0,0,1-.69-.45,8.73,8.73,0,0,1-2-2.22c-.53-.83-1-1.57-1.43-2.32a15.89,15.89,0,0,0-3.66-3.94,11.36,11.36,0,0,0-2.41-1.43A8.78,8.78,0,0,0,1206.89,14.36Z"/><path class="cls-1" d="M1206.9,14a8.6,8.6,0,0,0,2.61-1.18,10.64,10.64,0,0,0,2.1-1.78,15.17,15.17,0,0,0,2.82-4.45c.33-.82.59-1.6,1-2.51a8.53,8.53,0,0,1,1.58-2.5,5.12,5.12,0,0,1,.59-.55,5.37,5.37,0,0,1,.73-.47A4.54,4.54,0,0,1,1220,0a4.88,4.88,0,0,1,1.83.18,4.73,4.73,0,0,1,.84.33c.14.08.28.16.41.25l.37.3a2.78,2.78,0,0,1,.83,1.58,3.68,3.68,0,0,1-.08,1.59,7.58,7.58,0,0,1-1.36,2.65,15.73,15.73,0,0,1-4.53,3.77A26.44,26.44,0,0,1,1206.9,14Zm0,0a32.87,32.87,0,0,0,10.65-4.29,15.21,15.21,0,0,0,3.94-3.61,6.22,6.22,0,0,0,1.08-2.15,1.89,1.89,0,0,0-.37-1.83L1222,2c-.06-.05-.14-.08-.21-.13a2.87,2.87,0,0,0-.51-.21,2.81,2.81,0,0,0-1.11-.12,2.58,2.58,0,0,0-1.07.31,4.3,4.3,0,0,0-.49.3c-.14.14-.31.25-.45.4a7.23,7.23,0,0,0-1.4,2.05c-.33.75-.7,1.64-1.12,2.46a14.64,14.64,0,0,1-3.44,4.51,11,11,0,0,1-2.45,1.62A8.24,8.24,0,0,1,1206.9,14Z"/><path class="cls-1" d="M1231.19,9.08c4.51-5.63-3.12-8.27-3.12-8.27-.12,8.29-14.7,13.05-14.7,13.05,9.38-.51,17.77,9.62,17.77,9.62,4.65-4.94.25-8.68.25-8.68s5,1.87,6.9-1.22C1240.31,10.32,1236.15,5.51,1231.19,9.08Z"/><path class="cls-1" d="M20.58,16.93A16.23,16.23,0,0,0,16,19.86a6.71,6.71,0,0,0-1.48,2,1.82,1.82,0,0,0,0,1.85l.15.17c.05.06.12.1.18.16a3,3,0,0,0,.46.29,2.71,2.71,0,0,0,1.07.29,2.64,2.64,0,0,0,1.11-.14,4.28,4.28,0,0,0,.55-.23c.17-.1.35-.19.52-.31a8,8,0,0,0,1.79-1.8c.47-.69,1-1.51,1.58-2.26a15.67,15.67,0,0,1,4.27-3.9,12.05,12.05,0,0,1,2.74-1.22,8.44,8.44,0,0,1,3-.36A33.78,33.78,0,0,0,20.58,16.93Zm8.53-1.82a11.36,11.36,0,0,0-2.41,1.43A15.89,15.89,0,0,0,23,20.48c-.48.75-.9,1.49-1.43,2.32A8.73,8.73,0,0,1,19.56,25a5.46,5.46,0,0,1-.69.45,7.17,7.17,0,0,1-.8.35,4.59,4.59,0,0,1-1.82.25,4.83,4.83,0,0,1-1.77-.46,3.87,3.87,0,0,1-.75-.46c-.12-.1-.25-.19-.36-.3l-.31-.35a2.74,2.74,0,0,1-.5-1.69A4,4,0,0,1,13,21.26a8,8,0,0,1,1.86-2.4,16.76,16.76,0,0,1,5.21-3,27,27,0,0,1,11.9-1.48A8.78,8.78,0,0,0,29.11,15.11Z"/><path class="cls-1" d="M20.49,10.67A15.86,15.86,0,0,1,16,6.9,7.58,7.58,0,0,1,14.6,4.25a3.84,3.84,0,0,1-.08-1.59,2.84,2.84,0,0,1,.83-1.58l.37-.3c.13-.09.27-.17.41-.25A5.42,5.42,0,0,1,17,.2,4.88,4.88,0,0,1,18.8,0a4.49,4.49,0,0,1,1.73.53,5.37,5.37,0,0,1,.73.47,5.12,5.12,0,0,1,.59.55,8.53,8.53,0,0,1,1.58,2.5c.36.91.62,1.69.95,2.51A15.17,15.17,0,0,0,27.2,11a10.64,10.64,0,0,0,2.1,1.78A8.6,8.6,0,0,0,31.91,14,26.44,26.44,0,0,1,20.49,10.67ZM29,13.16a11,11,0,0,1-2.45-1.62A14.64,14.64,0,0,1,23.15,7c-.41-.82-.79-1.71-1.11-2.46a7.47,7.47,0,0,0-1.41-2.05c-.14-.15-.3-.26-.45-.4a4.3,4.3,0,0,0-.49-.3,2.58,2.58,0,0,0-1.07-.31,2.83,2.83,0,0,0-1.11.12,2.87,2.87,0,0,0-.51.21L16.79,2l-.18.14a1.89,1.89,0,0,0-.37,1.83,6.4,6.4,0,0,0,1.08,2.15A15.38,15.38,0,0,0,21.26,9.7,32.87,32.87,0,0,0,31.91,14,8.24,8.24,0,0,1,29,13.16Z"/><path class="cls-1" d="M7.62,9.08C3.11,3.45,10.74.81,10.74.81c.12,8.29,14.7,13.05,14.7,13.05-9.38-.51-17.77,9.62-17.77,9.62C3,18.54,7.42,14.8,7.42,14.8s-5,1.87-6.9-1.22C-1.5,10.32,2.66,5.51,7.62,9.08Z"/><path class="cls-1" d="M582.56,9.52a11.44,11.44,0,0,1-12.92,10.91,9,9,0,0,1-7.6-8l0-.5v-.49a6.93,6.93,0,0,1,.06-1,7.12,7.12,0,0,1,3.17-5,7,7,0,0,1,1.85-.87,9,9,0,0,1,1-.23,8.76,8.76,0,0,1,1-.08A5.67,5.67,0,0,1,573,5.64a5.61,5.61,0,0,1,1.89,3.73,4.9,4.9,0,0,1-.27,2.16,4.58,4.58,0,0,1-1.28,1.79,4.36,4.36,0,0,1-2,.94,3.94,3.94,0,0,1-2.17-.16,3.22,3.22,0,0,1-2-3.43.33.33,0,0,1,.38-.27.34.34,0,0,1,.27.3,2.43,2.43,0,0,0,1.78,2.21,2.9,2.9,0,0,0,1.43-.05,3.17,3.17,0,0,0,1.26-.72c1.46-1.31,1.1-3.93-.42-5.26a4,4,0,0,0-2.79-1,7,7,0,0,0-.79,0,6.79,6.79,0,0,0-.78.18,5.27,5.27,0,0,0-1.45.66A5.55,5.55,0,0,0,564,9.11a6.12,6.12,0,0,0-.47,3.18,7.65,7.65,0,0,0,3.23,5.6,7.72,7.72,0,0,0,3.08,1.3,9.83,9.83,0,0,0,3.42,0,10.62,10.62,0,0,0,6-3.29A10.91,10.91,0,0,0,582,9.49h0a.25.25,0,0,1,.29-.23A.26.26,0,0,1,582.56,9.52Z"/><path class="cls-1" d="M601.29,14.3a11.17,11.17,0,0,0-2.95-6.25,10.6,10.6,0,0,0-5.91-3.2,10.13,10.13,0,0,0-3.34,0,7.77,7.77,0,0,0-3,1.24,7.47,7.47,0,0,0-3.24,5.46,5.88,5.88,0,0,0,.43,3.15,5.59,5.59,0,0,0,2,2.41,5.31,5.31,0,0,0,1.44.69,4.94,4.94,0,0,0,.78.19,5.29,5.29,0,0,0,.8.07,4.08,4.08,0,0,0,2.88-1c1.6-1.32,2.07-4.11.47-5.54a3.16,3.16,0,0,0-1.35-.75,3,3,0,0,0-1.54,0,2.44,2.44,0,0,0-1.7,2.36.35.35,0,0,1-.7.05h0a3.2,3.2,0,0,1,2.1-3.27,4.09,4.09,0,0,1,3.93.79,4.44,4.44,0,0,1,1.22,1.7,4.72,4.72,0,0,1,.27,2.06,5.53,5.53,0,0,1-5.59,5.09,8.71,8.71,0,0,1-1-.05,8.33,8.33,0,0,1-1-.22,6.81,6.81,0,0,1-1.87-.83,7.2,7.2,0,0,1-3.23-5,7,7,0,0,1-.07-1v-.5l0-.5a9.14,9.14,0,0,1,4-6.7,9,9,0,0,1,3.7-1.48c.33,0,.66-.07,1-.11h1a8.09,8.09,0,0,1,1,.08l.48.06.48.1a11.36,11.36,0,0,1,6.52,4c.19.25.4.49.57.76l.51.82.43.85c.14.29.23.6.34.89a11.18,11.18,0,0,1,.62,3.7.21.21,0,0,1-.22.21.21.21,0,0,1-.21-.18Z"/><path class="cls-1" d="M621.12,9.52a11.38,11.38,0,0,1-9.07,10.76,11.24,11.24,0,0,1-3.84.15A9,9,0,0,1,604.57,19a9.15,9.15,0,0,1-2.72-2.82,9,9,0,0,1-1.25-3.74l-.05-.5v-.49a6.93,6.93,0,0,1,.06-1,7.12,7.12,0,0,1,3.17-5,7,7,0,0,1,1.85-.87,9,9,0,0,1,1-.23,8.76,8.76,0,0,1,1-.08,5.67,5.67,0,0,1,3.9,1.42,5.61,5.61,0,0,1,1.89,3.73,4.9,4.9,0,0,1-.27,2.16,4.58,4.58,0,0,1-1.28,1.79,4.36,4.36,0,0,1-2,.94,3.89,3.89,0,0,1-2.16-.16,3.21,3.21,0,0,1-2-3.43.33.33,0,0,1,.38-.27.34.34,0,0,1,.27.3,2.45,2.45,0,0,0,1.78,2.21,2.94,2.94,0,0,0,1.44-.05,3.2,3.2,0,0,0,1.25-.72c1.46-1.31,1.1-3.93-.42-5.26a4,4,0,0,0-2.79-1,7,7,0,0,0-.79,0,6.79,6.79,0,0,0-.78.18,5.27,5.27,0,0,0-1.45.66,5.55,5.55,0,0,0-2.07,2.38,6.12,6.12,0,0,0-.47,3.18,7.65,7.65,0,0,0,3.23,5.6,7.72,7.72,0,0,0,3.08,1.3,9.83,9.83,0,0,0,3.42,0,10.58,10.58,0,0,0,6-3.29,10.91,10.91,0,0,0,2.78-6.37h0a.25.25,0,0,1,.29-.23A.26.26,0,0,1,621.12,9.52Z"/><path class="cls-1" d="M639.85,14.3a11.17,11.17,0,0,0-3-6.25A10.6,10.6,0,0,0,631,4.85a10.13,10.13,0,0,0-3.34,0,7.77,7.77,0,0,0-3,1.24,7.47,7.47,0,0,0-3.24,5.46,5.88,5.88,0,0,0,.43,3.15,5.59,5.59,0,0,0,2,2.41,5.31,5.31,0,0,0,1.44.69,5.22,5.22,0,0,0,.78.19,5.29,5.29,0,0,0,.8.07,4.08,4.08,0,0,0,2.88-1c1.6-1.32,2.07-4.11.47-5.54a3.16,3.16,0,0,0-1.35-.75,3,3,0,0,0-1.54,0,2.44,2.44,0,0,0-1.7,2.36.35.35,0,0,1-.7.05h0A3.21,3.21,0,0,1,627,9.86a4.09,4.09,0,0,1,3.93.79,4.44,4.44,0,0,1,1.22,1.7,4.72,4.72,0,0,1,.27,2.06,5.53,5.53,0,0,1-5.59,5.09,8.71,8.71,0,0,1-1-.05,8.33,8.33,0,0,1-1-.22A6.81,6.81,0,0,1,623,18.4a7.2,7.2,0,0,1-3.23-5,7,7,0,0,1-.07-1v-.5l.05-.5A9.25,9.25,0,0,1,621,7.56a9.37,9.37,0,0,1,2.73-2.91,9,9,0,0,1,3.7-1.48c.33,0,.66-.07,1-.11h1a8.09,8.09,0,0,1,1,.08l.48.06.48.1a11.36,11.36,0,0,1,6.52,4c.19.25.4.49.57.76l.52.82.42.85c.14.29.23.6.34.89a11.18,11.18,0,0,1,.62,3.7.22.22,0,0,1-.43,0Z"/><path class="cls-1" d="M659.24,9.52a11.38,11.38,0,0,1-9.07,10.76,11.23,11.23,0,0,1-3.84.15A9.25,9.25,0,0,1,640,16.18a8.86,8.86,0,0,1-1.24-3.74l-.05-.5v-.49a5.76,5.76,0,0,1,.06-1,7.12,7.12,0,0,1,3.17-5,7,7,0,0,1,1.85-.87,8.08,8.08,0,0,1,1-.23,8.76,8.76,0,0,1,1-.08,5.67,5.67,0,0,1,5.8,5.15,4.9,4.9,0,0,1-.27,2.16A4.58,4.58,0,0,1,650,13.32a4.41,4.41,0,0,1-2,.94,3.94,3.94,0,0,1-2.17-.16,3.22,3.22,0,0,1-2-3.43.33.33,0,0,1,.38-.27.34.34,0,0,1,.27.3,2.43,2.43,0,0,0,1.78,2.21,2.9,2.9,0,0,0,1.43-.05,3.06,3.06,0,0,0,1.25-.72c1.47-1.31,1.1-3.93-.41-5.26a4,4,0,0,0-2.79-1,4.44,4.44,0,0,0-1.57.22,5.14,5.14,0,0,0-1.45.66,5.55,5.55,0,0,0-2.07,2.38,6.12,6.12,0,0,0-.48,3.18,7.71,7.71,0,0,0,3.24,5.6,7.66,7.66,0,0,0,3.08,1.3,9.83,9.83,0,0,0,3.42,0,10.62,10.62,0,0,0,6-3.29,10.91,10.91,0,0,0,2.78-6.37h0a.26.26,0,0,1,.51,0Z"/><path class="cls-1" d="M678,14.3a11.24,11.24,0,0,0-3-6.25,10.67,10.67,0,0,0-5.91-3.2,10.19,10.19,0,0,0-3.35,0,7.67,7.67,0,0,0-3,1.24,7.54,7.54,0,0,0-2.23,2.37,7.42,7.42,0,0,0-1,3.09,6,6,0,0,0,.42,3.15,5.61,5.61,0,0,0,2,2.41,5.4,5.4,0,0,0,1.43.69,5.22,5.22,0,0,0,.78.19,5.4,5.4,0,0,0,.8.07,4.11,4.11,0,0,0,2.89-1c1.6-1.32,2.07-4.11.47-5.54a3.2,3.2,0,0,0-1.36-.75,2.94,2.94,0,0,0-1.53,0,2.45,2.45,0,0,0-1.71,2.36.34.34,0,0,1-.34.36.35.35,0,0,1-.35-.31h0a3.2,3.2,0,0,1,2.1-3.27,4.07,4.07,0,0,1,3.92.79,4.24,4.24,0,0,1,1.22,1.7,4.58,4.58,0,0,1,.28,2.06A5.53,5.53,0,0,1,665,19.5a8.71,8.71,0,0,1-1-.05,9,9,0,0,1-1-.22,6.75,6.75,0,0,1-1.86-.83,7.24,7.24,0,0,1-2.66-3.06,7.14,7.14,0,0,1-.57-2,5.79,5.79,0,0,1-.07-1v-.5l0-.5a9.22,9.22,0,0,1,4-6.7,9,9,0,0,1,3.7-1.48c.33,0,.67-.07,1-.11h1a7.93,7.93,0,0,1,1,.08l.49.06.48.1a11.34,11.34,0,0,1,6.51,4,8.47,8.47,0,0,1,.58.76l.51.82.42.85c.14.29.23.6.35.89a11.18,11.18,0,0,1,.62,3.7.22.22,0,0,1-.22.21.21.21,0,0,1-.21-.18Z"/><circle class="cls-1" cx="588.16" cy="12.86" r="1.82"/><circle class="cls-1" cx="607.49" cy="10.98" r="1.82"/><path class="cls-1" d="M628.49,12.9a1.83,1.83,0,1,1-1.82-1.82A1.83,1.83,0,0,1,628.49,12.9Z"/><path class="cls-1" d="M647.43,10.93a1.82,1.82,0,1,1-1.82-1.82A1.81,1.81,0,0,1,647.43,10.93Z"/><path class="cls-1" d="M666.66,12.9a1.82,1.82,0,1,1-1.82-1.82A1.83,1.83,0,0,1,666.66,12.9Z"/><path class="cls-1" d="M570.76,10.88a1.82,1.82,0,1,1-1.82-1.82A1.82,1.82,0,0,1,570.76,10.88Z"/></g></g></svg>