<?xml version="1.0" encoding="UTF-8"?>
<svg id="Text" xmlns="http://www.w3.org/2000/svg" viewBox="0 0 301.46 301.46">
  <defs>
    <style>
      .cls-1 {
        fill: #07243c;
      }

      .cls-2 {
        fill: #fbc379;
      }
    </style>
  </defs>
  <circle class="cls-2" cx="150.73" cy="150.73" r="150.73"/>
  <g>
    <path class="cls-1" d="m100.3,215.41c9.24,2.56,18.67,5.08,27.78,7.51,3.39.91,6.78,1.81,10.18,2.72,6.79,1.82,13.15.94,18.93-2.61l5.85-3.6c17.12-10.52,34.83-21.4,52.17-32.22,1.48-.92,2.94-2.57,3.9-4.39,1.57-2.99,1.76-6.81.48-9.98-.9-2.22-2.91-5.17-7.41-6.65l-2.88-.02,2.47-1.61c9.08-9.55,12.08-20.37,8.91-32.16-3.16-11.76-11.09-19.62-23.55-23.36l-1-.3.35-.98c5.39-15.26,2.45-28-8.75-37.85-10.26-9.03-22.18-10.81-34.47-5.14-14.48,6.67-20.92,18.7-19.13,35.75l.09.86-.84.21c-15.89,3.89-24.97,13.43-26.99,28.36-1.82,13.51,3.37,24.45,15.02,31.64,12.87,7.94,26.01,6.92,39.05-3.01l.83-.64.59.87c5.6,8.23,13.27,12.97,23.44,14.51l3.67.04-3.92,2.21c-.38.25-.68.45-.98.63l-4.68,2.73c-5.86,3.42-11.92,6.96-17.9,10.4-1.08.62-2.22,1.12-3.32,1.6-.49.21-.99.43-1.47.65l-3.65.88,1.28-1.57c.87-1.04.98-1.45,1.16-1.87,1.39-3.33,1.3-6.8-.25-9.77-1.54-2.97-4.33-5.04-7.84-5.81-.39-.09-.78-.16-1.17-.23-.75-.14-1.52-.28-2.28-.52-2.36-.75-4.73-1.48-7.1-2.21-6.14-1.89-12.48-3.85-18.62-6.1-7.14-2.62-13.79-2.15-20.32,1.43-4.93,2.7-9.89,5.57-14.69,8.33-2.08,1.2-4.16,2.4-6.25,3.6-1.59.91-3.17,1.82-4.79,2.76l-2.51,1.45-1.86-3.21c-1.52-2.64-3.55-3.99-5.9-3.99-1.29,0-2.67.4-4.13,1.22-2.58,1.44-5.16,2.9-7.72,4.37-4.13,2.36-5.12,5.92-2.81,10.01,8.62,15.26,17.25,30.52,25.89,45.77,2.19,3.87,5.86,4.87,9.8,2.68,2.44-1.35,5.01-2.81,7.87-4.46,4.1-2.36,5.09-5.93,2.8-10.04l-3.32-5.94.84-.49c.33-.19.65-.37.96-.54.6-.33,1.13-.62,1.57-.96,2.34-1.82,4.65-1.51,6.6-.97Zm49.08-144.16c10.48-7.66,24.84-7.4,34.94.63,10.13,8.06,13.69,21.99,8.65,33.85-.06.13-.1.28-.14.42-.22.69-.66,2.11-2.41,2.11-.06,0-.12,0-.19,0l-.43-.02c-1.21-.04-2.73-.1-3.83-1.97-2.23-3.78-5.57-6.65-10.21-8.78l-1.07-.49.67-.97c3.65-5.32,6.51-12.95-.59-19.08-4.9-4.23-12.23-4.08-17.04.35-4.41,4.07-6.08,11.86-.47,18.28l.7.81-2.17,1.63c-1.99,1.49-3.98,2.99-5.98,4.47-.49.36-1.16.39-1.62.31-2.39-.45-4.77-.92-7.2-1.39l-2.5-.49-.17-.59c-2.82-10.09,1.84-22.31,11.07-29.07Zm19.3,28.34c5.92.71,10.91,3.64,13.34,7.85l.57.99-1.05.43c-.77.31-1.54.61-2.32.91-1.69.65-3.44,1.33-5.05,2.16-1.6.84-3.12,1.85-4.72,2.93-.72.48-1.44.97-2.19,1.45l-.82.53-.54-.81c-2.87-4.3-6.69-7.85-11.37-10.55l-1.1-.63.87-.92c3.24-3.4,8.61-5.01,14.37-4.32Zm-11.17-13.12c.09-4.93,4.14-8.89,9.06-8.81,4.97.07,8.83,4.06,8.77,9.08h0c-.03,2.4-.99,4.64-2.72,6.32-1.67,1.62-3.85,2.51-6.15,2.51-.06,0-.11,0-.17,0-4.93-.09-8.87-4.18-8.78-9.1Zm-1.07,70.27c-4.98,3.94-11.3,6.11-17.77,6.11h0c-6.42,0-12.39-2.06-17.74-6.11-1.16-.88-1.49-1.88-1.1-3.34,2.24-8.51,10-14.45,18.87-14.45h0c8.87,0,16.62,5.96,18.86,14.48.37,1.41.04,2.4-1.11,3.31Zm-26.71-30.67c.04-4.89,4.06-8.86,8.97-8.86h.05c2.38.01,4.62.97,6.31,2.68,1.69,1.71,2.6,3.95,2.58,6.32-.02,2.37-.99,4.61-2.73,6.31-1.7,1.67-3.9,2.58-6.21,2.58-.03,0-.07,0-.1,0-4.93-.06-8.91-4.11-8.88-9.04Zm32.03,25.02l-.8-1.13c-.56-.79-1.1-1.61-1.63-2.43-1.18-1.8-2.39-3.65-3.85-5.18-1.44-1.51-3.16-2.74-4.98-4.05-.8-.58-1.61-1.16-2.39-1.76l-.73-.56.5-.77c4.94-7.56,4.53-14.29-1.14-18.94-4.95-4.06-12.22-3.76-16.91.71-4.25,4.05-6.09,11.55-.07,18.43l.87,1-1.2.56c-5.98,2.78-10.06,7.01-12.5,12.95l-.59,1.43-1.06-1.13c-5.72-6.09-8.83-21.6.51-33.72,4.74-6.15,11.58-10.07,19.25-11.05,7.64-.97,15.2,1.1,21.29,5.83,13.56,10.54,13.79,28.3,6.23,38.7l-.82,1.12Zm5.06,6.91l-.98-.73c-1.62-1.21-1.82-2.57-.63-4.29,6.43-9.27,7.82-19.41,4.12-30.14-.42-1.2-.59-2.49.92-3.73,8.98-7.36,18.8-9.09,29.17-5.14,10.56,4.02,16.74,11.9,18.38,23.41.85,5.99-.34,11.95-3.54,17.73-.25.45-.54.89-.79,1.27-.1.15-.19.29-.28.42l-.8,1.25-.86-1.21c-.58-.82-1.13-1.67-1.68-2.5-1.22-1.87-2.38-3.64-3.82-5.14-1.44-1.51-3.17-2.75-5-4.07-.82-.59-1.65-1.19-2.47-1.82l-.84-.65.7-.8c2.87-3.25,4-6.9,3.37-10.86-.51-3.23-2.07-5.91-4.61-7.97-4.93-3.99-12.14-3.69-16.76.7-5.19,4.92-5.27,11.47-.24,18.43l.59.81-.81.58c-9.21,6.58-9.68,7.08-12.63,13.34l-.52,1.1Zm28.68-18.7c-1.69,1.67-3.92,2.58-6.28,2.58h-.07c-2.4-.02-4.65-.98-6.34-2.69-1.67-1.7-2.58-3.94-2.56-6.3.04-4.88,4.07-8.83,8.98-8.83h.04c2.4.01,4.65.95,6.32,2.64,1.67,1.69,2.58,3.93,2.56,6.32-.02,2.37-.96,4.6-2.66,6.28Zm-24.02,24.34c-1.18-.89-1.53-1.88-1.16-3.31,2.17-8.52,9.89-14.52,18.8-14.58h.14c8.93,0,16.67,5.98,18.86,14.58.35,1.37.02,2.32-1.09,3.17-5.21,4.02-11.15,6.1-17.63,6.2h-.02c-6.62-.05-12.63-2.09-17.88-6.06Zm-81.02,62.78c.19.34.31.68.46,1.07.07.18.14.38.23.6l.23.58-.42.46c-.13.14-.24.29-.36.44-.33.43-.71.91-1.26,1.23-2.53,1.5-5.13,2.95-7.64,4.35l-.89.5c-.57.32-1.12.48-1.63.48-1.07,0-2-.69-2.78-2.08-2.54-4.52-5.1-9.02-7.66-13.53l-3.51-6.19c-4.79-8.47-9.59-16.94-14.38-25.41-1.57-2.77-1.25-3.9,1.55-5.49l2.44-1.38c1.66-.93,3.32-1.87,4.96-2.83.97-.56,1.83-.73,2.64-.52.81.22,1.47.8,2.02,1.78,4.93,8.72,9.86,17.43,14.79,26.14l11.2,19.79Zm4.41-15.11c-1.26.78-2.51,1.49-3.85,2.25-.57.32-1.15.65-1.73.99l-.87.5-16.69-29.47.68-.53c.1-.08.2-.16.3-.24.24-.2.49-.41.8-.59l4.77-2.77c6.25-3.63,12.71-7.38,19.1-11.02,1.79-1.02,3.82-1.97,6.04-2.81,3.86-1.47,7.91-1.5,12.03-.11,7.79,2.64,16.06,5.36,25.27,8.31,1.25.4,2.53.65,3.89.92.8.16,1.6.32,2.39.51,3.66.87,6.18,4.37,5.73,7.96-.47,3.77-3.14,6-7.16,6-.07,0-.13,0-.2,0-.91-.02-1.77-.13-2.56-.33-2.23-.58-4.46-1.17-6.69-1.76-4.06-1.07-8.26-2.18-12.41-3.22-.81-.2-1.81-.13-2.28.17-.35.22-.77,1.14-.72,1.44.21.73.98,1.65,1.5,1.8,7.28,2,14.84,3.95,23.12,5.96,6.79,1.65,13.4.43,20.2-3.73,7.07-4.33,14.37-8.53,21.44-12.59,2.72-1.57,5.45-3.14,8.16-4.71,3.4-1.98,7.54-4.07,12.37-4.58,3.05-.33,5.78.66,7.47,2.71,1.64,1.99,2.08,4.76,1.22,7.59-.5,1.62-1.71,3.25-3.02,4.07-18.11,11.26-36.58,22.62-54.45,33.6l-3.58,2.2c-3.13,1.93-6.48,2.89-10.13,2.89-2.08,0-4.26-.31-6.54-.94-7.6-2.07-15.2-4.1-22.8-6.13-5.87-1.57-11.74-3.14-17.61-4.72-1.24-.33-2.19-.22-3.18.39Z"/>
    <path class="cls-1" d="m59.7,186.09c-1.15,0-2.12.96-2.16,2.13-.02.62.19,1.2.6,1.64.39.42.93.66,1.51.68.55.02,1.12-.19,1.54-.6.43-.42.68-.98.68-1.59,0-.61-.23-1.18-.66-1.62-.41-.41-.94-.64-1.5-.64h0Z"/>
  </g>
</svg>