<?xml version="1.0" encoding="UTF-8"?>
<svg id="Text" xmlns="http://www.w3.org/2000/svg" viewBox="0 0 301.46 301.46">
  <defs>
    <style>
      .cls-1 {
        fill: #07243c;
      }

      .cls-2 {
        fill: #fbc379;
      }
    </style>
  </defs>
  <circle class="cls-2" cx="150.73" cy="150.73" r="150.73"/>
  <g>
    <path class="cls-1" d="m191.59,152.08c-3.45-1.27-6.86-2.15-10.13-2.61-.64-.09-1.61.41-2.53.9-.14.07-.28.15-.43.22.09.14.17.28.25.42.54.91,1.09,1.84,1.69,2.09,1.61.67,3.32,1.07,5.13,1.49,1.42.33,2.88.67,4.3,1.16,2.37.81,4.19,2.4,5.1,4.47.93,2.09.89,4.54-.12,6.9-1.43,3.33-3,6.66-4.53,9.87l-4.29,9.12c-3.11,6.64-6.34,13.51-9.6,20.22-2.37,4.87-7.04,6.69-11.65,4.51-4.53-2.15-6.15-6.88-4.04-11.79.36-.83.76-1.65,1.15-2.47.21-.43.41-.86.62-1.29.84-1.8,1.69-3.6,2.54-5.4,2.16-4.58,4.4-9.32,6.52-14.01.89-1.97.8-2.86.56-3.26-.31-.53-1.2-.7-1.89-.76-7.4-.59-13.4-.85-18.85-.82-.9,0-2.11.19-2.8,1.05-.73.9-.64,2.25-.43,3.22.37,1.75.54,3.54.71,5.27.05.46.09.92.14,1.38.24,2.27.53,4.54.81,6.8,1.37,10.92,2.79,22.22-1.03,33.59-1.75,5.23-2.91,10.78-4.02,16.16-.64,3.09-1.3,6.29-2.07,9.4-1.22,4.92-4.72,7.42-9.62,6.86-4.56-.52-7.78-3.83-7.87-8.93,0-.05,0-.11.01-.17,1.18-4.36,5.18-22.68,6.46-28.6.01-.01.03-.02.05-.03.19-.85.4-1.71.61-2.58.81-3.29,1.65-6.7,1.18-9.73-.79-5.03-2.28-10.07-3.72-14.95-.66-2.25-1.35-4.58-1.96-6.88-1.16-4.36-2.29-8.72-3.42-13.09-.7-2.69-1.39-5.38-2.1-8.07-.37-1.41-.73-3.45.4-4.8.83-1,2.26-1.4,4.35-1.24,2.02.16,4.13.07,6.17-.01.94-.04,1.88-.08,2.81-.09,1.36-.02,2.63-.09,3.19-.69.29-.31.42-.81.39-1.53-.03-.71-.2-1.19-.52-1.49-.63-.57-1.95-.34-3.24-.27-2.73.14-5.46.07-8.2.21l-4.14.22-.18-.89c-.07-.34-.13-.62-.19-.87-.12-.51-.22-.91-.22-1.37-.01-1.72,0-3.45,0-5.17.02-3.02-.26-9.33-.41-12.47-.05-1.04-.92-1.84-1.96-1.81-1.02.03-1.84.85-1.86,1.87-.03,1.49-.06,3.52-.02,4.54.03.85.07,1.75.07,2.74v1.92l-3.96-2.53c-1.39-.88-2.53-1.61-3.67-2.35-2.9-1.88-4.91-3.6-5.33-5.89-.42-2.31.9-4.69,3.02-7.56,1.46-1.98,2.93-3.94,4.41-5.91,3.9-5.2,7.94-10.59,11.57-16.08,4.92-7.46,12.17-11.07,19.37-9.67,8.21,1.6,13.96,7.97,15.02,16.62l.02.14c.31,2.54.57,3.16,2.22,3.03,1.62-.14,1.8-.8,1.67-3.34v-.24c-.43-8.55-6.62-16.49-15.07-19.31-8.88-2.96-18.92.08-24.41,7.4-6.87,9.16-13.56,18.59-19.78,27.41-3.74,5.31-2.65,11.42,2.72,15.2,3.49,2.46,6.24,4.26,8.9,5.83,2.71,1.59,3.78,3.7,3.28,6.45-1.26,6.91.15,13.41,1.64,20.3.29,1.34.58,2.68.85,4.03.85,4.21,2.24,8.43,3.59,12.52,3.1,9.39,6.3,19.1,3.48,29.78.01.03.03.07.05.1-1.27,5.82-4.98,22.83-6.25,27.75-.42.87-.61,2.16-.5,3.28.61,6.1,5.4,10.92,11.39,11.48,6.11.55,11.6-3.19,13.35-9.11.69-2.33,1.21-4.77,1.72-7.13.23-1.08.47-2.16.72-3.24l7.11-31.92,1.33,2.38c.54.49,1,.92,1.41,1.31.73.68,1.31,1.22,1.89,1.69,3.12,2.47,7.09,3.39,10.89,2.53,3.56-.8,6.41-3.04,8.02-6.28,6.43-13.01,12.73-26.42,19.26-41,1.33-2.97,1.36-6.28.09-9.3-1.33-3.15-3.95-5.64-7.21-6.84Zm-36.37,48.75l-.39-4.1-2.65-21.82,15.04.84-11.99,25.09Z"/>
    <path class="cls-1" d="m158.9,119.61c-2.87-5.68-5.59-11.04-8.46-16.44-1.92-3.61-5.56-5.68-9.32-5.68-1.52,0-3.06.34-4.52,1.05-2.56,1.25-4.56,3.49-5.47,6.16-.89,2.59-.71,5.38.51,7.84,6.89,13.96,13.14,26.2,19.09,37.43,1.56,2.94,4.05,4.88,7.03,5.48,2.98.6,6.05-.23,8.63-2.35,9.33-7.64,18.63-15.65,27.62-23.4l2.24-1.93c2.82-2.42,4-5.69,3.43-9.44-.58-3.79-2.99-6.87-6.45-8.25-3.49-1.39-7.41-.79-10.5,1.61-4.31,3.36-8.4,6.86-12.73,10.57-1.91,1.64-3.83,3.29-5.79,4.94l-1.01.85-.6-1.18c-1.25-2.45-2.48-4.87-3.7-7.28Zm7.4,11.23c1.58-1.34,3.15-2.7,4.72-4.05,4.4-3.79,8.95-7.71,13.63-11.33,1.93-1.49,5.2-1.79,7.25-1.22,2.91.81,4.81,4.31,3.83,7.15-.58,1.67-1.82,3.13-3.07,4.35-.72.7-1.46,1.35-2.14,1.95-2.72,2.4-5.64,4.56-8.4,6.92-5.71,4.87-11.44,9.72-17.2,14.53-1.83,1.53-3.6,2.3-5.28,2.3-.36,0-.71-.03-1.06-.1-1.98-.4-3.65-1.89-4.98-4.44-6.48-12.49-12.71-24.83-17.94-35.24-1.05-2.1-1.25-4.25-.57-6.07.58-1.54,1.8-2.74,3.41-3.39,3.74-1.5,6.87-.22,8.81,3.59l4.4,8.65c2.58,5.07,5.15,10.14,7.75,15.21.94,1.84,1.92,3.56,2.72,3.72.77.17,2.2-.9,4.12-2.52Z"/>
    <path class="cls-1" d="m140.16,84.27c11.54,0,20.93-9.39,20.93-20.93s-9.39-20.93-20.93-20.93-20.93,9.39-20.93,20.93,9.39,20.93,20.93,20.93Zm0-38.17c9.51,0,17.24,7.74,17.24,17.24s-7.73,17.24-17.24,17.24-17.24-7.73-17.24-17.24,7.74-17.24,17.24-17.24Z"/>
  </g>
</svg>