<?xml version="1.0" encoding="UTF-8"?>
<svg id="Text" xmlns="http://www.w3.org/2000/svg" viewBox="0 0 301.46 301.46">
  <defs>
    <style>
      .cls-1 {
        fill: #07243c;
      }

      .cls-2 {
        fill: #fbc379;
      }
    </style>
  </defs>
  <circle class="cls-2" cx="150.73" cy="150.73" r="150.73"/>
  <g>
    <path class="cls-1" d="m234.83,87.68c-2.33-.01-4.66,0-6.99,0-3.19,0-6.38,0-9.57-.02-1.08,0-2.15-.25-3.01-.68-11.57-5.75-23.14-11.51-34.7-17.28-8.7-4.34-17.4-8.67-26.1-13-.97-.48-1.97-1.22-2.02-3-.02-.61-.23-1.12-.59-1.45-.3-.27-.7-.4-1.14-.36-1.16.09-1.72.67-1.71,1.77,0,1.81-1,2.56-1.98,3.04-9.08,4.52-18.16,9.04-27.24,13.57-11.14,5.55-22.27,11.11-33.42,16.65-.93.46-2.06.72-3.18.73-5.83.06-11.58.04-16.93.02-2.37-.02-3.9.52-4.96,1.68-.78.86-1.39,1.9-2.03,3-.25.42-.49.85-.75,1.26v125.09c1.56,4,4.46,5.72,9.65,5.72.08,0,.17,0,.25,0,11.95-.12,24.09-.1,35.84-.08,4.67,0,29.31.01,34.01.02.06,0,.12,0,.18,0,32.12,0,64.25.01,96.37,0,5.14,0,8.1-2.96,8.1-8.13,0-40.15,0-80.29,0-120.44,0-5.12-2.95-8.08-8.1-8.1Zm-137.87-1.81c.19-.13.35-.25.5-.35.3-.22.57-.41.88-.57,8.91-4.45,17.81-8.9,26.72-13.35l21.38-10.68c.75-.38,1.92-.97,3.16.32.52.54,1.19.91,2.48-.09.62-.48,1.83-.72,2.65-.31,15.4,7.64,31.04,15.44,46.16,22.99l2.95,1.47c.18.09.3.2.44.33.08.07.18.17.34.3l3.73,1.67h-114.9l3.5-1.73Zm142.41,129.45c0,4.41-1.08,5.48-5.51,5.48h-95.47s-.06,0-.09,0h-70.94c-4.15,0-5.28-1.15-5.28-5.34v-118.8c0-4.36,1.05-5.43,5.34-5.43h166.65c4.16,0,5.3,1.14,5.3,5.29v118.8Z"/>
    <path class="cls-1" d="m214.22,154.81c-.47-3.07-1.52-4.59-3.65-5.26l-.52-.16-.17-.7c-.04-.14-.08-.31-.08-.51v-3.69c-.01-1.8-.02-3.6-.03-5.41-.02-3.38-1.8-5.17-5.14-5.17-17.4-.03-33.46-.03-49.12,0-3.23,0-5.01,1.81-5.02,5.09-.02,4.55-.01,9.09,0,13.64v2.73c0,3.98,1.62,5.61,5.59,5.62,3.15,0,6.29,0,9.5,0h3.93s.54-.04.54-.04l1.92,10.33c1.23,7.68,2.45,15.27,3.66,22.86.53,3.33,2.77,5.02,5.97,4.51,11.18-1.79,22.37-3.58,33.55-5.38,1.54-.25,2.75-.93,3.5-1.98s1-2.43.75-3.99l-1-6.16c-1.4-8.62-2.84-17.54-4.18-26.33Zm-43.78.88c-.93.51-.74,1.71-.74,1.71,0,0,.35,0-.16,0-2.81.02-5.61.03-8.44.03-.99,0-1.98,0-2.98,0h-3.97v-19.86h51.96v12.17l-.76.15c-.25.05-.5.09-.74.14-.51.09-1,.18-1.46.31-1.35.38-5.22.98-5.22.98,0,0-.37-2.39-1.2-3.59-1.68-2.43-4.48-3.41-7.88-2.94-3.28.45-5.38,2.59-6.34,5.85-.13.45-.22.93-.31,1.49-.05.29-.1.59-.17.91v.52s-.82.12-.82.12c-.63.1-9.63,1.38-10.76,2Zm24.42-2.91c-.01,1.17-.52,2.33-1.4,3.18-.86.84-2.01,1.32-3.16,1.32h-.05c-2.46-.03-4.52-2.14-4.49-4.61.03-2.46,2.12-4.48,4.59-4.5,1.17.01,2.34.52,3.19,1.4.85.87,1.33,2.04,1.32,3.2Zm-15.44,42.6l-5.88-36.71,2.97-.49c1.9-.32,3.7-.62,5.53-.85.53-.07,1.45-.19,1.45-.19,0,0,.64.91.84,1.1,2.17,2.04,4.77,2.94,7.31,2.53,2.5-.41,4.64-2.04,6.02-4.59.1-.19.33-1.28.33-1.28,0,0,1.09-.29,1.53-.37,2.44-.44,4.85-.81,7.4-1.2l3.35-.52,5.87,36.7-36.72,5.88Z"/>
    <path class="cls-1" d="m133.22,126.42c.25-1.54-.02-2.91-.78-3.96-.76-1.05-1.97-1.74-3.5-1.99l-9.9-1.59-.1-.69c-.73-4.87-2.87-7.53-6.72-8.36-4-.87-6.68.71-9.89,5.79l-.33.53-.62-.09c-.73-.11-1.46-.23-2.2-.35-1.61-.26-3.27-.53-4.91-.71-.34-.04-.66-.06-.97-.06-2.68,0-4.21,1.41-4.68,4.28-1.38,8.46-2.72,16.92-4.07,25.39l-1.38,8.68c-.3,1.88-.06,3.36.7,4.41.76,1.05,2.1,1.73,3.98,2.03,12.5,1.95,22.93,3.61,32.83,5.21,2.39.39,4.02.2,5.12-.6,1.08-.79,1.76-2.23,2.12-4.55,1.74-11.12,3.51-22.24,5.29-33.36Zm-26.03-11.78c.9-.93,2.13-1.46,3.37-1.46h.01c2.47,0,4.65,2.2,4.66,4.68,0,2.51-2.11,4.67-4.62,4.71h-.08c-2.47,0-4.61-2.07-4.69-4.56-.04-1.22.45-2.45,1.34-3.37Zm16.78,47.21l-37.62-5.99,5.98-37.57,2.97.45c2.14.32,4.15.62,6.19.99.75.14,1.18.86,1.52,1.52,1.34,2.61,3.58,4.35,6.16,4.78,2.58.43,5.27-.49,7.39-2.53.19-.19,1.21-1.12,2.26-.98,2.54.34,5.03.73,7.66,1.16l3.47.55-5.99,37.61Z"/>
    <path class="cls-1" d="m126.44,185.45c0,4.19,1.64,8.12,4.6,11.06,2.92,2.9,6.78,4.49,10.88,4.49.04,0,.08,0,.11,0,8.51-.06,15.43-7.03,15.44-15.54,0-4.18-1.61-8.09-4.54-11.01-2.92-2.91-6.82-4.51-10.99-4.51h-.06c-8.52.03-15.44,6.99-15.44,15.51Zm15.44-11.95h.05c3.23,0,6.25,1.23,8.49,3.47,2.25,2.25,3.49,5.27,3.49,8.5,0,6.55-5.33,11.92-11.87,11.97h-.1c-3.17,0-6.15-1.23-8.41-3.46-2.29-2.27-3.54-5.3-3.54-8.54,0-6.56,5.34-11.92,11.88-11.95Z"/>
    <path class="cls-1" d="m206.98,119.44c-15.76,0-31.52,0-47.29,0h-.38c-.1,0-.22,0-.35,0-.3,0-.63.01-.74.08-.97.92-1.3,1.63-1.28,1.86.04.44,1.17,1.31,1.66,1.68.07.02.41-.01.62-.03.21-.02.42-.03.61-.03,6.04,0,12.07,0,18.11,0h28.81c.48.01.93.02,1.37-.02,1.09-.1,1.63-.64,1.68-1.67.03-.63-.1-1.5-1.57-1.82-.25-.05-.56-.05-.9-.04h-.35Z"/>
    <path class="cls-1" d="m87.86,180.94c0,.57.16.98.5,1.26.39.33,1.04.5,1.87.51,2.24.02,4.47.01,6.71,0h2.9s2.87,0,2.87,0c2.25,0,4.49,0,6.74,0,1.11,0,2.44-.31,2.45-1.74,0-.49-.14-.88-.43-1.17-.4-.41-1.1-.63-1.97-.63-3.17-.01-6.33-.02-9.5-.02s-6.48,0-9.72.02c-1.59,0-2.41.6-2.42,1.77Z"/>
    <path class="cls-1" d="m87.86,192.35c-.01.51.13.93.42,1.23.39.4,1.04.62,1.89.62,6.59.03,13.12.03,19.41,0,.82,0,1.5-.24,1.9-.66.3-.31.44-.72.42-1.2-.05-1.38-1.3-1.67-2.34-1.68-2.26-.01-4.52-.01-6.78,0h-2.83s-2.91,0-2.91,0c-.97,0-1.94,0-2.9,0-1.33,0-2.66,0-3.98.01-2.25.01-2.28,1.23-2.29,1.69Z"/>
    <path class="cls-1" d="m184.4,171.35c.14,1.22,1.25,1.49,2.17,1.49h0l.66-.09c.63-.09,1.35-.19,2.07-.3l3.63-.55c3.34-.5,6.79-1.02,10.17-1.58,1.01-.17,1.65-.97,1.51-1.91-.12-.8-.76-1.55-1.67-1.55-.08,0-.16,0-.24.02-5.83.8-11.5,1.65-16.86,2.5-1.04.17-1.58.9-1.46,1.97Z"/>
    <path class="cls-1" d="m198.1,183.22c2.12-.25,4.32-.58,6.75-1.01.94-.17,1.43-.72,1.55-1.76,0-.5-.18-.95-.53-1.27-.33-.3-.77-.46-1.27-.46-.09,0-.17,0-.26.01-2.07.23-4.27.56-6.73,1.03-.99.19-1.62,1.02-1.47,1.94.16.96,1,1.62,1.96,1.52Z"/>
    <path class="cls-1" d="m100.36,135.85c5.77,1.04,11.55,2.01,17.17,2.91.46.07.92-.04,1.28-.31.36-.27.58-.67.63-1.12.08-.77-.07-1.73-1.27-1.95-4.24-.79-8.46-1.51-12.54-2.21l-4.23-.73s-.1,0-.15,0c-1.04,0-2.21.26-2.33,1.41-.12,1.16.35,1.81,1.43,2.01Z"/>
    <path class="cls-1" d="m98.37,147.95c5.3.95,10.86,1.9,17,2.9.96.15,1.84-.46,2.01-1.41.18-.97-.38-1.79-1.39-2.05-.77-.2-1.55-.33-2.38-.46l-.58-.1c-3.46-.58-6.91-1.17-10.28-1.73l-3.73-.63h-.01c-.77,0-2,.21-2.18,1.53-.13.93.53,1.77,1.53,1.95Z"/>
  </g>
</svg>