<?xml version="1.0" encoding="UTF-8"?>
<svg id="Text" xmlns="http://www.w3.org/2000/svg" viewBox="0 0 301.46 301.46">
  <defs>
    <style>
      .cls-1 {
        fill: #07243c;
      }

      .cls-2 {
        fill: #fbc379;
      }
    </style>
  </defs>
  <circle class="cls-2" cx="150.73" cy="150.73" r="150.73"/>
  <path class="cls-1" d="m192.96,121.97c-.01,1.82-.03,3.54.03,5.26.11,3.57,1.61,6.09,4.46,7.5,2.83,1.39,5.69,1.07,8.48-.97,12.62-9.22,23.14-16.91,34.04-24.96,2.22-1.64,3.44-3.83,3.44-6.18,0-2.35-1.22-4.55-3.44-6.19-10.76-7.94-22.24-16.39-33.91-24.81-1.36-.98-3.12-1.67-4.71-1.84-2.02-.23-3.97.39-5.5,1.72-1.71,1.48-2.74,3.71-2.83,6.14-.07,2.02-.06,4.01-.04,6.11,0,.94.02,1.88.02,2.83v.81l-3.49.57c-15.96,2.59-27.77,7.47-37.17,15.37-1.1.93-2.13.92-3.24-.03-6.44-5.49-14.21-9.56-23.08-12.09-3.74-1.07-7.48-1.92-11.44-2.82-1.77-.4-3.56-.81-5.36-1.24l-.73-.17v-3c0-1.78.01-3.65,0-5.51-.03-3.82-1.47-6.41-4.38-7.92-2.95-1.52-5.83-1.12-9.07,1.26l-3.39,2.5c-9.25,6.82-18.82,13.88-28.3,20.73-2.12,1.53-4.22,3.33-5.27,6.05v2.94c.9,2.23,2.04,3.8,3.59,4.93,7.23,5.28,14.45,10.58,21.67,15.87l11.64,8.53c.5.37,1.1.79,1.72,1.13,2.16,1.18,4.63,1.37,6.78.51,2.12-.85,3.71-2.58,4.45-4.88.39-1.2.47-2.55.54-4.06.06-1.48.05-2.96.04-4.53,0-.68-.01-1.38-.01-2.09v-1.17l1.14.24c6.79,1.4,12.23,4.13,16.65,8.33,5.96,5.68,8.87,13.1,8.89,22.66.02,10.08.02,20.17.01,30.25v14.54c0,.21-.02.43-.04.66-.02.28-.05.66,0,.8l.05.15v.16c0,11,0,22.01,0,33.02,0,2.31.42,2.72,2.77,2.72,8.47,0,16.94,0,25.41,0,2.55,0,2.9-.36,2.9-2.96v-50c0-.32,0-.64-.02-.95,0-3.32,0-6.55,0-9.77,0-6.3-.01-12.82.04-19.23.08-9.25,3-16.47,8.93-22.09,4.45-4.21,9.88-6.92,16.62-8.28l1.14-.23v1.16c0,.86,0,1.7-.01,2.52Zm-56.83,8.97l-.42,3.17-1.24-2.74c-.12-.15-.23-.27-.33-.38-.22-.25-.39-.45-.53-.66-5.77-9.03-14.46-14.23-26.57-15.9-.41-.06-.99-.04-1.44.35-.43.37-.67,1.01-.68,1.81-.05,3.22-.03,6.41,0,9.67,0,1.4.03,4-2.48,5.25-2.37,1.18-4.33-.26-5.5-1.13-7.26-5.35-14.54-10.68-21.81-16.02l-11.17-8.2c-1.53-1.12-2.3-2.32-2.3-3.55s.75-2.4,2.24-3.49c6.09-4.47,12.18-8.95,18.28-13.42l15-11.01c1.01-.74,2.88-2.12,5.18-1.01,2.29,1.1,2.55,3.29,2.56,4.84v3.66c0,2.01,0,4.01,0,6.02,0,1.98.4,2.43,2.3,2.67,13.33,1.74,23.06,4.71,31.57,9.61,2.04,1.17,3.93,2.49,5.94,3.88.91.63,1.84,1.28,2.8,1.92l.91.61-.72.82c-6.02,6.79-9.8,14.39-11.56,23.24Zm53.07-15.55c-15.37,3.69-25.15,14.93-26.15,30.06-.55,8.23-.47,16.66-.4,24.82.02,2.79.05,5.58.05,8.37v.71c-.01,12.89-.01,25.78,0,38.67v10.12h-23.93v-34.06c0-.28,0-.56,0-.85l-.02-.14c0-5.01,0-9.95,0-14.88,0-11.74-.01-23.88.06-35.83.02-4.41.34-7.98.99-11.25,2.74-13.72,11.06-24.35,24.73-31.6,8.24-4.36,17.7-7.12,29.78-8.68,1.81-.23,2.23-.71,2.24-2.55.02-2.31.01-4.63.01-6.94v-2.93c0-1.48.25-3.58,2.41-4.71,2.07-1.09,3.8-.17,5.22.87l14.6,10.71c6.28,4.61,12.57,9.21,18.85,13.82,1.45,1.06,2.18,2.22,2.18,3.46s-.75,2.42-2.21,3.5c-4.86,3.57-9.73,7.14-14.6,10.71-6.23,4.57-12.46,9.14-18.69,13.72-.89.65-2.97,2.19-5.38.92-2.12-1.12-2.38-3.22-2.38-4.92v-.82c.02-2.96.03-6.02,0-9.03,0-.6-.13-1.42-.64-1.85-.51-.43-1.32-.41-1.92-.32-1.55.24-3.2.51-4.77.89Z"/>
</svg>