<svg xmlns="http://www.w3.org/2000/svg" viewBox="0 0 288.47 288.47"><defs><style>.cls-1{fill:#fbc379;}.cls-2{fill:#07243c;}</style></defs><g id="Layer_2" data-name="Layer 2"><g id="graphics"><circle class="cls-1" cx="144.24" cy="144.24" r="144.24"/><path class="cls-2" d="M43.55,231.31c.56.87,1.37,1.15,3.29,1.15q61.08,0,122.14,0h73.75c1,0,2.14-.33,2.19-1.63a1.6,1.6,0,0,0-.4-1.19,2.46,2.46,0,0,0-1.74-.63c-1.83,0-3.6,0-5.72,0h-3.62a7,7,0,0,1-1.14-.12l-.53-.07-1.91-.24,1-1.65c3.68-6.06,3.69-11.87,0-17.76l-.72-1.17,1.23-.61,1.78-.85a30.45,30.45,0,0,0,3.75-1.94c1.6-1,2.5-2.23,2.58-3.47s-.64-2.58-2.1-3.83c-7.23-6.2-16.76-14.37-26.48-22.64a17.58,17.58,0,0,1-5.43-8q-2.32-7-4.69-14l-.13-.39c-2.24-6.65-4.55-13.52-6.76-20.3-3-9.24-9-15-18.24-17.76-4.12-1.2-8.12-2.48-12.35-3.84l-.22-.07-5.64-1.8-3.46-.92,2.25-1a14.05,14.05,0,0,0,2.36-1.6A19.09,19.09,0,0,0,165.35,91c.16-5.94.16-11.18,0-16a19.73,19.73,0,0,0-17.87-18.77c-9.62-1.09-19,5.52-21,14.73a48.64,48.64,0,0,0-.72,9.54c0,1.73,0,3.53-.16,5.32-.56,8.5,1.86,15,7.38,19.73.32.28,2.1,1.5,2.1,1.5l-1.67.64-1,.39-.66.23-5.8,1.84-.48.15c-4.42,1.41-9,2.86-13.43,4.23-8.67,2.67-14.28,8.17-17.17,16.81q-2.64,8-5.33,15.91-3.24,9.66-6.47,19.34a17.89,17.89,0,0,1-5.54,8.19c-8.92,7.59-17.68,15.1-26.62,22.78a4.53,4.53,0,0,0-1.88,3.6,4.28,4.28,0,0,0,2.19,3.21,31.58,31.58,0,0,0,4.17,2.22c.73.35,1.42.68,2.1,1l1.08.55L58,209.16c-2.83,6-2.42,12,1.21,17.9L60.4,229H54.61c-2.48,0-5.29,0-8.1,0a3.27,3.27,0,0,0-3,1.12ZM196.94,152c.48,1.43,1,2.83,1.46,4.23,1.13,3.24,2.19,6.27,3.11,9.45a25.55,25.55,0,0,0,8.59,12.86c5.65,4.65,11.27,9.5,16.71,14.19l.1.08c2.26,2,4.46,3.85,6.67,5.73.31.27.61.56.95.88l1.69,1.6-1.43.84a13.51,13.51,0,0,1-7,2.08A14,14,0,0,1,221,202l-6.65-3.73-.4-.23c-5.31-3-10.77-6.06-16.19-9a18.4,18.4,0,0,1-9.27-10.5c-1.47-4.12-3.16-8.24-4.81-12.23l-.1-.25c-.71-1.73-1.42-3.45-2.11-5.18-.17-.42-.32-.84-.49-1.31l-.66-1.85,16.19-7.07Zm13.13,47.22-.19.46-14.07-4.83-.82-.11-3.84-1.15-7.21-2.17-1.78-.54c-2-.6-4-1.21-6-1.91a3.38,3.38,0,0,1-2.05-2.75c-.07-7.59-.06-15.32,0-22.78v-3.68a2.63,2.63,0,0,1,.14-.76c0-.12.09-.27.14-.48l.95-3.61,2.32,5.67,1.06,2.62c.72,1.79,1.46,3.58,2.19,5.37,1.73,4.24,3.51,8.6,5.13,12.9a18.42,18.42,0,0,0,8.54,9.73c.36.21.71.43,1.06.66ZM129.23,91.4a99.84,99.84,0,0,1,.28-18.28c1-8.19,8.54-14.14,17.26-13.56a16.31,16.31,0,0,1,15.11,15.51c.09,1.8.07,3.61,0,5.37,0,.68,0,1.33,0,2l0,.44c0,.81,0,1.59,0,2.38,0,1.71,0,3.48,0,5.25a16.19,16.19,0,0,1-15.69,15.79h-.53C136.86,106.28,129.78,99.88,129.23,91.4ZM94.88,142c.34-1,.66-2,1-3l.7-2.13c.61-1.84,1.23-3.74,1.91-5.61,2.24-6.24,6.35-10.57,11.89-12.52,8.52-3,17.23-5.7,25.89-8,6.25-1.68,13.09-1.27,20.89,1.24,5.89,1.9,12.07,3.84,18.37,5.78a21.5,21.5,0,0,1,14.78,14.35c1,3,2,6,3,9l2.08,6.25L179,154.56l-1.9-4.68c-.83-2-1.66-4.08-2.47-6.11-1.25-3.09-1.94-3-2.62-2.86s-1.42.24-1.42,3.71v43.19H118V144.25c0-.38,0-.77,0-1.15.08-1.63-.69-2-1.37-2.15s-1.54-.09-2.19,1.58q-1.31,3.3-2.64,6.6l-.24.61c-.16.39-.33.77-.52,1.21l-.92,2.08L93.92,145ZM53.64,201.81h0l-1.5-.89,17-14.61c3.25-2.79,6.93-5.94,10.56-9a20.57,20.57,0,0,0,6.47-9.5c1.39-4.23,2.82-8.43,4.19-12.49l2.37-7,16.08,8-1.06,2.63c-.48,1.17-7.64,19.08-8.07,20.21a2.52,2.52,0,0,0-.06,1.92,1.49,1.49,0,0,0,.88.78c1,.37,1.82-.09,2.38-1.37.49-1.13,7.65-19.06,8.13-20.27l.06-.13c.22-.56.45-1.15.71-1.77l1.69-4.18.7,4.46c0,.27.08.49.12.68a6.1,6.1,0,0,1,.13,1.08v2.83c0,7.43,0,15.12,0,22.67,0,1-.63,2.65-1.78,3-5,1.59-10.17,3.12-15.14,4.6l-4.68,1.4-13.28,4.8-.21-.46,13.17-7.1.79-.48,1.59-1c4.24-2.45,7.08-6.49,8.94-12.73.25-.84-.1-1.47-1-1.87a1.44,1.44,0,0,0-2,.67,17.22,17.22,0,0,0-1.46,3.41,13.56,13.56,0,0,1-6.47,7.68c-9.49,5.37-18,10.1-25.88,14.45a12.86,12.86,0,0,1-6.18,1.66A13.92,13.92,0,0,1,53.64,201.81Zm8.49,7.45a6.79,6.79,0,0,1,3.43-2.52c16.89-5.15,33.76-10.2,49.48-14.89a12.08,12.08,0,0,1,3.47-.47c16.42,0,33.84,0,50.57,0a19.79,19.79,0,0,1,5.61.83c14.12,4.26,28.47,8.64,42.35,12.89l3.65,1.12a13.44,13.44,0,0,1,8.3,6.55,11.4,11.4,0,0,1,.49,9.14,13.12,13.12,0,0,1-5.33,6.48,3.78,3.78,0,0,1-2.21.54q-30.47,0-60.92,0a5.66,5.66,0,0,1-.79-.06l-.58-.05-.49-.64-4.14-9,6.68-.41c.86-.05,2.28-.36,2.23-1.81a1.52,1.52,0,0,0-.46-1.12,2.48,2.48,0,0,0-1.82-.52c-2.15.06-4.36.13-6.46.37-7.49.85-14.93,0-22.13-.9l-.16,0c-2.51-.3-5.12-.61-7.67-.84-6.09-.54-12.26-1.22-18.23-1.87l-9.1-1c-1.27-.13-2.11.41-2.22,1.46s.47,1.8,1.77,1.94c5.17.57,10.43,1.13,15.52,1.66l.86.09,9.13,1,4.72.49,1.11.12c5.27.54,10.73,1.11,16.14,1.81,5.1.65,8.41,3.14,10.11,7.58l.65,1.7H125.08c-17.37,0-35.33,0-52.95,0-5.65,0-9.07-1.8-11.07-5.85A13.13,13.13,0,0,1,62.13,209.26Z"/></g></g></svg>