<svg xmlns="http://www.w3.org/2000/svg" viewBox="0 0 243.07 23.22"><defs><style>.cls-1,.cls-2{fill:#f7984e;}.cls-2{font-size:20.12px;font-family:Cabin-Bold, Cabin;font-weight:700;}.cls-3{letter-spacing:-0.02em;}.cls-4{letter-spacing:-0.01em;}.cls-5{letter-spacing:0em;}</style></defs><g id="Layer_2" data-name="Layer 2"><g id="graphics"><rect class="cls-1" x="170.67" y="9.88" width="1.84" height="1.84" transform="translate(42.62 124.48) rotate(-45)"/><rect class="cls-1" x="174.78" y="9.4" width="2.79" height="2.79" transform="translate(43.97 127.74) rotate(-45)"/><rect class="cls-1" x="180.28" y="9.88" width="1.84" height="1.84" transform="translate(45.43 131.28) rotate(-45)"/><rect class="cls-1" x="184.81" y="9.4" width="2.8" height="2.79" transform="translate(37.84 123.83) rotate(-40.62)"/><polygon class="cls-1" points="186.9 9.95 243.07 10.62 243.07 10.97 186.9 11.64 186.9 9.95"/><rect class="cls-1" x="65.59" y="9.88" width="1.84" height="1.84" transform="translate(11.85 50.19) rotate(-45)"/><rect class="cls-1" x="60.1" y="9.4" width="2.79" height="2.79" transform="translate(10.38 46.64) rotate(-45)"/><rect class="cls-1" x="55.56" y="9.88" width="1.84" height="1.84" transform="translate(8.91 43.09) rotate(-44.99)"/><rect class="cls-1" x="50.06" y="9.4" width="2.8" height="2.8" transform="translate(5.37 36.1) rotate(-40.62)"/><polygon class="cls-1" points="50.72 11.64 0 10.97 0 10.62 50.72 9.95 50.72 11.64"/><text class="cls-2" transform="translate(74.42 17.1)"><tspan class="cls-3">R</tspan><tspan x="12.21" y="0">esou</tspan><tspan class="cls-4" x="53.66" y="0">r</tspan><tspan class="cls-5" x="60.12" y="0">c</tspan><tspan x="69.19" y="0">es</tspan></text></g></g></svg>